<?xml version="1.0" encoding="UTF-8"?>
<svg xmlns="http://www.w3.org/2000/svg" xmlns:xlink="http://www.w3.org/1999/xlink" width="400px" height="132px" viewBox="0 0 75 25" version="1.1">
<g id="surface1">
<path style=" stroke:none;fill-rule:nonzero;fill:rgb(0%,0%,0%);fill-opacity:1;" d="M 5.75 9.449219 L 5.75 10.332031 L 6.898438 10.257812 L 8.050781 10.207031 L 8 13.660156 L 7.976562 17.136719 L 10.125 17.136719 L 10.050781 13.582031 L 9.949219 10.03125 L 11.175781 10.132812 C 12.375 10.207031 12.375 10.207031 12.449219 9.375 L 12.523438 8.570312 L 5.75 8.570312 Z M 5.75 9.449219 "/>
<path style=" stroke:none;fill-rule:nonzero;fill:rgb(0%,0%,0%);fill-opacity:1;" d="M 13.5 12.828125 L 13.5 17.136719 L 15.5 17.136719 L 15.5 15.5 C 15.5 13.382812 15.875 13.382812 16.976562 15.5 L 17.851562 17.136719 L 20.25 17.136719 L 19.226562 15.449219 C 18.574219 14.363281 18.300781 13.710938 18.476562 13.660156 C 18.648438 13.609375 19.074219 13.304688 19.449219 12.980469 C 20.425781 12.121094 20.425781 10.382812 19.425781 9.398438 C 18.773438 8.746094 18.601562 8.695312 16.125 8.617188 L 13.5 8.519531 Z M 17.726562 10.433594 C 17.875 10.535156 18 10.960938 18 11.367188 C 18 12.171875 17.324219 12.601562 16.101562 12.601562 C 15.550781 12.601562 15.5 12.5 15.5 11.339844 L 15.5 10.105469 L 16.476562 10.179688 C 17 10.230469 17.550781 10.332031 17.726562 10.433594 Z M 15.199219 13.304688 C 15.074219 13.988281 14.5 13.960938 14.5 13.257812 C 14.5 12.777344 14.601562 12.652344 14.875 12.777344 C 15.101562 12.851562 15.25 13.078125 15.199219 13.304688 Z M 15.199219 13.304688 "/>
<path style=" stroke:none;fill-rule:nonzero;fill:rgb(0%,0%,0%);fill-opacity:1;" d="M 23.175781 11.265625 C 22.648438 12.777344 21.949219 14.691406 21.625 15.574219 L 21.023438 17.164062 L 22.175781 17.085938 C 23.199219 17.011719 23.375 16.933594 23.5 16.382812 C 23.648438 15.777344 23.75 15.75 25.375 15.75 C 27 15.75 27.101562 15.777344 27.25 16.382812 C 27.375 16.933594 27.550781 17.011719 28.523438 17.085938 L 29.675781 17.164062 L 28.148438 12.878906 L 26.625 8.570312 L 24.125 8.570312 Z M 25.949219 10.082031 C 26 10.332031 25.773438 10.457031 25.273438 10.484375 C 24.601562 10.507812 24.550781 10.457031 24.773438 10.03125 C 25.074219 9.476562 25.824219 9.527344 25.949219 10.082031 Z M 25.976562 12.324219 C 26.148438 12.902344 26.351562 13.558594 26.425781 13.761719 C 26.523438 14.039062 26.273438 14.113281 25.398438 14.113281 C 24.773438 14.113281 24.25 14.085938 24.25 14.039062 C 24.25 13.988281 24.425781 13.382812 24.648438 12.703125 C 24.875 12.019531 25.101562 11.316406 25.148438 11.113281 C 25.324219 10.585938 25.625 11.039062 25.976562 12.324219 Z M 23.75 14.492188 C 23.75 14.867188 23.300781 15.246094 23.074219 15.046875 C 23.023438 14.96875 23.023438 14.667969 23.125 14.390625 C 23.300781 13.808594 23.75 13.910156 23.75 14.492188 Z M 27.699219 14.867188 C 27.773438 15.398438 27.75 15.421875 27.398438 15.144531 C 26.925781 14.742188 26.875 14.039062 27.324219 14.164062 C 27.476562 14.238281 27.675781 14.542969 27.699219 14.867188 Z M 27.699219 14.867188 "/>
<path style=" stroke:none;fill-rule:nonzero;fill:rgb(0%,0%,0%);fill-opacity:1;" d="M 30.125 8.996094 C 30.226562 9.25 30.898438 11.140625 31.625 13.230469 L 32.949219 17.011719 L 34.300781 17.085938 L 35.675781 17.164062 L 36.625 14.441406 C 37.148438 12.953125 37.824219 11.011719 38.148438 10.132812 L 38.75 8.542969 L 37.601562 8.617188 L 36.449219 8.695312 L 35.449219 11.84375 C 34.398438 15.171875 34.324219 15.398438 34.148438 14.84375 C 34.101562 14.640625 33.648438 13.15625 33.148438 11.515625 L 32.226562 8.570312 L 31.101562 8.570312 C 30.101562 8.570312 29.976562 8.617188 30.125 8.996094 Z M 35 15.699219 C 35 16.105469 34.199219 16.179688 33.824219 15.828125 C 33.5 15.472656 33.550781 15.449219 34.226562 15.472656 C 34.648438 15.5 35 15.601562 35 15.699219 Z M 35 15.699219 "/>
<path style=" stroke:none;fill-rule:nonzero;fill:rgb(0%,0%,0%);fill-opacity:1;" d="M 39.625 12.851562 L 39.625 17.136719 L 45 17.136719 L 45 15.296875 L 41.75 15.648438 L 41.75 13.457031 L 43.175781 13.484375 C 44.574219 13.484375 44.601562 13.484375 44.601562 12.726562 L 44.601562 11.972656 L 43.175781 12.046875 L 41.75 12.148438 L 41.75 10.003906 L 45 10.308594 L 45 8.570312 L 39.625 8.570312 Z M 39.625 12.851562 "/>
<path style=" stroke:none;fill-rule:nonzero;fill:rgb(0%,0%,0%);fill-opacity:1;" d="M 46.25 12.851562 L 46.25 17.136719 L 51.199219 17.136719 L 51.148438 16.332031 L 51.101562 15.523438 L 49.648438 15.601562 L 48.199219 15.675781 L 48.300781 12.121094 L 48.375 8.570312 L 46.25 8.570312 Z M 46.25 12.851562 "/>
<path style=" stroke:none;fill-rule:nonzero;fill:rgb(0%,0%,0%);fill-opacity:1;" d="M 52.25 12.851562 L 52.25 17.136719 L 57.5 17.136719 L 57.5 15.421875 L 55.875 15.574219 L 54.25 15.699219 L 54.25 13.40625 L 55.773438 13.535156 L 57.273438 13.683594 L 57.125 11.972656 L 55.699219 12.046875 L 54.25 12.148438 L 54.25 10.003906 L 55.875 10.132812 L 57.5 10.28125 L 57.5 8.570312 L 52.25 8.570312 Z M 53.898438 9.878906 C 53.351562 10.660156 53.398438 11.59375 54 12.222656 L 54.5 12.777344 L 54 13.230469 C 53.351562 13.835938 53.324219 15.195312 54 15.878906 L 54.5 16.382812 L 52.976562 16.382812 L 53.023438 13.027344 C 53.023438 11.214844 53.101562 9.628906 53.175781 9.5 C 53.226562 9.398438 53.5 9.324219 53.773438 9.324219 C 54.25 9.324219 54.25 9.351562 53.898438 9.878906 Z M 53.898438 9.878906 "/>
<path style=" stroke:none;fill-rule:nonzero;fill:rgb(0%,0%,0%);fill-opacity:1;" d="M 58.875 12.851562 L 58.875 17.136719 L 61.050781 17.136719 L 60.949219 15.5 C 60.824219 13.304688 61.324219 13.28125 62.398438 15.449219 L 63.175781 17.011719 L 64.476562 17.085938 L 65.773438 17.164062 L 64.625 15.5 C 64 14.589844 63.5 13.785156 63.5 13.710938 C 63.5 13.660156 63.675781 13.609375 63.875 13.609375 C 64.625 13.609375 65.5 12.347656 65.5 11.289062 C 65.5 9.171875 64.550781 8.570312 61.199219 8.570312 L 58.875 8.570312 Z M 60.675781 9.777344 C 60.175781 10.332031 60.101562 12.347656 60.550781 12.800781 C 60.773438 13.027344 60.773438 13.230469 60.523438 13.710938 C 60.351562 14.039062 60.175781 14.667969 60.148438 15.097656 C 60.148438 15.523438 60.050781 15.878906 59.949219 15.878906 C 59.824219 15.878906 59.75 14.414062 59.75 12.601562 L 59.75 9.324219 L 60.425781 9.324219 C 61.050781 9.324219 61.050781 9.351562 60.675781 9.777344 Z M 64.449219 10.359375 C 64.648438 10.683594 64.726562 11.164062 64.625 11.644531 C 64.398438 12.625 64.125 12.324219 64.226562 11.191406 C 64.25 10.734375 64.175781 10.332031 64.050781 10.332031 C 63.925781 10.332031 63.75 10.15625 63.675781 9.980469 C 63.449219 9.425781 64.074219 9.726562 64.449219 10.359375 Z M 63.023438 10.332031 C 64.148438 10.960938 63.199219 12.601562 61.726562 12.601562 C 61.101562 12.601562 61.050781 12.5 60.949219 11.441406 C 60.898438 10.8125 60.925781 10.257812 60.976562 10.179688 C 61.175781 9.980469 62.523438 10.082031 63.023438 10.332031 Z M 63.226562 13.582031 C 63 13.9375 63 14.214844 63.324219 14.84375 C 63.875 15.925781 63.648438 15.828125 62.773438 14.515625 C 61.976562 13.355469 62 13.105469 62.925781 13.105469 C 63.425781 13.105469 63.476562 13.15625 63.226562 13.582031 Z M 63.226562 13.582031 "/>
</g>
</svg>
